<?xml version="1.0" standalone="no"?>
<!DOCTYPE svg PUBLIC "-//W3C//DTD SVG 20010904//EN"
 "http://www.w3.org/TR/2001/REC-SVG-20010904/DTD/svg10.dtd">
<svg version="1.0" xmlns="http://www.w3.org/2000/svg"
 width="458.000000pt" height="458.000000pt" viewBox="0 0 458.000000 458.000000"
 preserveAspectRatio="xMidYMid meet">
<metadata>
Created by potrace 1.14, written by Peter Selinger 2001-2017
</metadata>
<g transform="translate(0.000000,458.000000) scale(0.100000,-0.100000)"
fill="#000000" stroke="none">
<path d="M1103 4473 c-3 -10 -8 -22 -11 -27 -3 -5 0 -6 6 -2 8 5 10 2 6 -8 -3
-9 -11 -13 -16 -10 -7 5 -7 1 0 -12 8 -14 6 -21 -6 -32 -15 -12 -15 -13 3 -7
15 5 17 3 8 -6 -6 -6 -9 -18 -6 -25 3 -8 0 -14 -6 -14 -6 0 -11 -5 -11 -11 0
-5 5 -7 12 -3 6 4 5 -3 -4 -15 -9 -12 -14 -35 -11 -56 2 -19 -2 -37 -8 -41 -8
-5 -9 -3 -4 6 6 9 4 11 -5 5 -10 -6 -9 -11 5 -22 13 -8 14 -13 5 -13 -7 0 -10
-3 -7 -7 4 -3 1 -13 -6 -21 -6 -9 -7 -13 -1 -9 6 3 11 0 11 -7 0 -9 -7 -12
-15 -8 -11 4 -14 1 -9 -12 4 -10 1 -19 -8 -22 -7 -3 -11 -12 -8 -20 3 -8 0
-14 -7 -14 -6 0 -8 -5 -4 -12 5 -8 0 -9 -14 -6 -12 4 -20 2 -16 -3 3 -5 12 -9
20 -9 8 0 12 -5 9 -10 -4 -6 -11 -7 -17 -4 -6 4 -6 -2 1 -15 10 -18 9 -20 -5
-14 -13 5 -15 3 -9 -7 6 -10 4 -12 -8 -7 -11 4 -14 2 -10 -8 3 -8 10 -12 16
-8 6 3 7 1 3 -6 -4 -6 -11 -9 -16 -6 -5 3 -11 -8 -15 -24 -4 -20 -11 -28 -20
-25 -10 4 -13 0 -10 -13 3 -16 -2 -19 -26 -18 -20 1 -26 -2 -20 -9 13 -17 -5
-57 -24 -50 -8 3 -12 11 -8 17 3 5 2 7 -4 4 -5 -3 -8 -20 -7 -36 1 -17 -2 -28
-7 -25 -5 3 -7 10 -4 15 10 15 -2 10 -16 -8 -8 -9 -9 -14 -3 -10 18 11 25 -20
7 -34 -17 -15 -46 -21 -38 -9 3 5 2 11 -3 14 -4 2 -9 -6 -10 -20 -1 -13 4 -24
11 -24 8 0 7 -3 -3 -9 -8 -6 -18 -7 -22 -5 -4 3 -8 0 -8 -6 0 -6 -4 -8 -10 -5
-5 3 -10 -1 -10 -9 0 -9 -5 -16 -11 -16 -5 0 -7 4 -4 10 3 6 -1 7 -10 4 -14
-6 -14 -8 2 -21 10 -8 12 -11 4 -7 -11 5 -13 3 -7 -11 6 -16 4 -16 -11 -4 -15
12 -16 12 -10 -3 6 -17 -8 -24 -36 -19 -4 1 -2 -9 4 -21 11 -21 11 -22 -4 -10
-13 11 -15 10 -13 -13 2 -14 -1 -28 -7 -32 -6 -4 -7 -1 -3 8 4 8 1 6 -7 -3 -8
-10 -18 -14 -23 -10 -4 4 -2 -2 6 -12 10 -13 11 -17 2 -12 -9 6 -11 1 -8 -18
3 -18 1 -23 -10 -19 -9 3 -15 -2 -16 -13 0 -11 -2 -23 -3 -29 -2 -5 -4 -14 -5
-20 -1 -5 -2 -14 -1 -18 1 -5 -3 -6 -8 -3 -5 4 -12 2 -16 -4 -3 -5 -1 -10 4
-10 6 0 11 -5 11 -11 0 -5 -4 -8 -8 -5 -4 2 -9 -6 -10 -20 -1 -13 4 -24 10
-24 7 0 3 -7 -8 -16 -10 -8 -13 -13 -7 -9 9 4 11 1 7 -9 -3 -9 -11 -13 -18 -9
-6 4 -4 -2 4 -12 12 -14 12 -19 2 -23 -10 -3 -10 -7 0 -20 10 -12 10 -14 1 -8
-7 4 -13 2 -13 -3 0 -6 8 -11 17 -11 15 0 14 -2 -2 -14 -19 -14 -19 -15 5 -36
14 -12 19 -18 11 -14 -11 6 -13 1 -8 -25 4 -20 3 -30 -3 -26 -16 10 -12 -2 7
-20 12 -13 13 -19 4 -25 -10 -5 -9 -9 3 -13 9 -4 15 -12 14 -19 -2 -7 3 -12
10 -10 8 1 11 -2 7 -8 -3 -5 -1 -10 4 -10 6 0 10 -3 10 -7 -1 -5 -1 -19 0 -33
1 -20 3 -22 12 -10 8 12 9 10 7 -10 -2 -17 4 -28 19 -35 18 -9 20 -14 10 -25
-8 -8 -8 -11 -1 -7 7 4 15 0 18 -9 4 -9 13 -14 22 -10 8 3 13 2 9 -3 -3 -5 1
-16 9 -24 8 -8 12 -18 8 -21 -3 -4 1 -4 10 -1 9 4 18 0 21 -9 4 -9 12 -16 18
-16 7 0 18 -8 26 -17 10 -12 12 -13 8 -3 -4 10 -2 9 8 -2 8 -10 20 -18 26 -18
7 0 9 -5 5 -12 -5 -8 0 -7 11 2 10 8 16 10 12 4 -8 -14 29 -33 71 -36 6 -1 12
-6 12 -12 0 -6 5 -5 12 2 17 17 33 15 18 -2 -10 -13 -7 -14 15 -10 20 3 25 1
19 -8 -5 -10 -4 -10 6 -1 10 9 18 8 38 -5 15 -10 23 -11 19 -4 -5 6 -4 12 2
12 6 0 11 -7 11 -16 0 -14 2 -14 15 0 18 17 41 12 49 -11 6 -14 8 -14 25 1 19
17 25 14 46 -24 8 -13 6 -13 -8 -2 -14 12 -16 11 -12 -7 2 -11 0 -23 -6 -26
-5 -4 -9 0 -9 7 0 10 -2 10 -9 -1 -5 -8 -7 -21 -4 -30 4 -14 3 -14 -6 -1 -10
13 -12 13 -20 0 -5 -8 -8 -17 -5 -21 2 -5 -4 -6 -15 -4 -14 3 -18 -1 -14 -11
3 -9 0 -14 -8 -12 -8 2 -13 -5 -13 -15 2 -14 -1 -15 -12 -6 -11 9 -14 8 -14
-6 0 -12 -5 -15 -16 -11 -15 6 -15 4 -3 -11 9 -11 10 -14 2 -9 -8 4 -25 -5
-43 -24 -17 -17 -35 -28 -40 -25 -6 4 -9 3 -8 -2 4 -11 -39 -53 -46 -46 -3 4
-6 -1 -6 -11 0 -9 -12 -21 -26 -26 -16 -7 -23 -14 -18 -22 6 -10 4 -10 -8 0
-13 11 -16 10 -14 -5 1 -12 -5 -17 -16 -15 -12 2 -16 -2 -12 -13 5 -11 2 -14
-10 -9 -11 4 -16 1 -16 -11 0 -11 -5 -15 -15 -12 -8 4 -17 1 -21 -5 -5 -7 -2
-8 6 -3 9 6 11 4 6 -4 -5 -7 -14 -10 -22 -7 -8 3 -11 0 -7 -9 3 -10 -5 -18
-22 -25 -14 -5 -23 -14 -20 -20 3 -5 0 -7 -8 -4 -8 3 -18 0 -22 -5 -3 -6 -11
-9 -16 -6 -5 4 -6 -2 -2 -11 5 -13 3 -16 -10 -11 -12 4 -14 2 -10 -10 5 -13 2
-15 -11 -10 -11 5 -15 3 -10 -5 5 -8 2 -9 -10 -5 -9 4 -15 3 -12 -1 2 -4 1
-14 -5 -22 -6 -10 -9 -11 -9 -2 0 6 -4 12 -10 12 -5 0 -10 -6 -10 -14 0 -8 -5
-18 -12 -22 -7 -5 -9 -2 -4 7 4 8 1 6 -7 -3 -8 -10 -17 -15 -20 -11 -4 3 -7 1
-7 -6 0 -7 -4 -10 -9 -7 -5 3 -11 -1 -15 -9 -3 -8 -12 -15 -20 -15 -8 0 -18
-5 -22 -12 -5 -7 -3 -8 6 -3 9 5 11 4 6 -4 -6 -9 -11 -9 -24 1 -12 10 -14 10
-8 1 4 -8 1 -13 -9 -13 -10 0 -13 -5 -9 -12 5 -8 2 -9 -9 -5 -11 4 -17 1 -17
-9 0 -8 5 -12 10 -9 6 3 10 1 10 -6 0 -7 3 -9 7 -6 3 4 15 -1 26 -10 11 -10
17 -12 13 -5 -4 6 -3 12 3 12 5 0 12 -6 14 -12 4 -9 6 -8 7 2 0 10 6 6 15 -10
8 -14 14 -19 15 -12 0 9 7 11 21 7 12 -4 32 -8 45 -10 13 -1 35 -10 49 -19 18
-12 25 -13 25 -4 1 8 7 5 15 -6 11 -14 15 -16 15 -5 0 12 2 12 10 -1 9 -13 10
-13 10 0 0 13 2 13 9 0 6 -8 7 -19 5 -25 -3 -5 1 -2 8 7 9 11 19 14 28 8 8 -5
18 -6 24 -3 5 4 7 -1 3 -9 -4 -12 -1 -14 13 -11 10 3 31 -3 46 -12 24 -14 25
-14 10 -1 -11 9 -15 16 -9 16 7 0 18 -6 25 -13 7 -8 19 -12 27 -9 10 3 11 0 5
-9 -6 -12 -5 -12 8 -1 13 10 18 9 29 -5 9 -11 10 -14 2 -9 -12 6 -18 -11 -14
-37 0 -4 -5 -6 -11 -5 -7 2 -12 -3 -10 -11 3 -12 0 -12 -13 -1 -13 11 -15 10
-9 -4 4 -11 2 -16 -7 -14 -8 2 -13 -4 -13 -14 1 -10 -4 -14 -12 -11 -8 3 -14
-1 -14 -8 0 -11 -2 -11 -9 -1 -6 10 -11 9 -22 -4 -12 -16 -12 -17 1 -9 13 8
13 7 1 -8 -14 -18 -26 -23 -16 -8 3 5 1 12 -5 16 -5 3 -10 -2 -10 -11 0 -10
-3 -14 -7 -11 -3 4 -13 1 -21 -6 -13 -10 -15 -9 -8 3 6 12 4 11 -6 -1 -7 -9
-19 -14 -27 -11 -10 3 -12 0 -8 -11 5 -13 2 -15 -18 -7 -20 8 -25 6 -25 -6 0
-14 -2 -15 -17 -3 -14 12 -16 12 -9 0 6 -9 5 -12 -5 -9 -8 3 -20 -2 -27 -11
-8 -9 -11 -10 -7 -4 4 9 1 11 -9 7 -9 -3 -13 -10 -10 -15 3 -5 -3 -6 -12 -2
-12 4 -15 3 -10 -5 4 -7 2 -12 -3 -12 -6 0 -11 6 -12 13 -1 6 -5 1 -9 -13 -5
-17 -8 -19 -9 -7 -1 15 -3 15 -21 -3 -12 -12 -18 -26 -14 -32 4 -7 3 -8 -5 -4
-7 5 -9 16 -5 28 4 12 2 18 -4 14 -5 -3 -12 -15 -15 -26 -3 -11 -1 -18 3 -15
5 3 12 1 15 -5 5 -8 11 -7 21 1 11 9 14 9 14 -1 0 -10 3 -10 15 0 10 9 15 9
15 1 0 -6 13 -11 28 -11 15 0 33 -5 39 -11 8 -8 13 -8 18 1 5 8 10 8 21 -1 10
-8 14 -8 14 0 0 6 5 11 12 11 6 0 8 -3 5 -7 -7 -7 22 -32 37 -33 6 0 1 7 -10
15 -18 14 -18 15 6 6 14 -4 31 -6 39 -3 9 3 11 0 7 -7 -9 -14 16 -10 27 4 4 6
10 5 16 -3 5 -9 23 -13 47 -10 38 3 39 2 36 -27 -2 -17 -9 -34 -16 -40 -7 -5
-12 -18 -10 -28 2 -14 -2 -17 -14 -12 -14 5 -15 4 -4 -6 17 -18 15 -32 -4 -25
-14 5 -15 4 -5 -8 9 -11 8 -17 -4 -29 -13 -14 -13 -16 3 -20 15 -4 15 -5 1 -6
-9 0 -20 -8 -23 -17 -4 -10 -2 -13 6 -8 8 5 9 2 5 -10 -4 -10 -7 -20 -7 -22 0
-3 -6 -2 -12 2 -7 4 -4 -3 6 -15 16 -17 17 -21 4 -16 -13 5 -15 2 -11 -16 5
-17 3 -20 -8 -14 -11 7 -12 6 -2 -6 10 -12 10 -18 0 -29 -10 -10 -9 -11 3 -5
9 5 8 0 -4 -14 -14 -15 -15 -20 -5 -16 10 4 15 -1 16 -15 1 -11 -3 -20 -8 -20
-6 0 -7 5 -4 10 3 6 2 10 -4 10 -5 0 -9 -9 -8 -19 0 -11 6 -17 12 -14 5 3 4 0
-2 -8 -18 -19 -16 -30 4 -22 15 6 16 5 3 -9 -8 -9 -18 -14 -22 -11 -5 2 -8 -1
-8 -6 0 -6 5 -11 10 -11 6 0 10 -5 10 -11 0 -5 -6 -7 -12 -3 -10 5 -10 4 -1
-6 6 -7 9 -19 6 -26 -4 -12 -8 -12 -21 -2 -12 10 -12 8 2 -14 16 -25 16 -27
-1 -31 -17 -5 -17 -5 0 -6 10 0 15 -6 12 -11 -4 -6 -10 -8 -14 -5 -5 2 -7 -7
-5 -21 3 -27 14 -47 14 -25 0 7 5 9 12 5 7 -4 10 -4 6 1 -4 4 4 22 17 40 14
17 25 36 25 42 0 5 10 15 22 22 13 6 16 10 7 7 -9 -2 -16 2 -16 10 0 7 4 11 9
8 8 -5 12 11 9 30 -1 5 5 4 13 -3 12 -10 14 -8 12 14 -3 19 0 23 10 15 9 -9
12 -5 10 14 -2 19 1 23 13 18 14 -5 14 -4 2 11 -12 15 -12 17 4 10 14 -5 17
-3 12 10 -7 18 8 33 16 17 3 -6 4 -5 3 2 -6 23 13 48 32 41 14 -4 13 -2 -3 10
-20 16 -20 16 4 17 19 0 21 3 11 15 -10 12 -8 13 10 10 18 -3 20 -2 10 10 -7
9 -8 15 0 20 5 3 10 1 10 -4 0 -6 5 -11 10 -11 7 0 7 7 0 23 -10 20 -10 21 4
4 8 -11 12 -26 9 -35 -5 -11 -3 -13 8 -7 12 8 12 6 0 -8 -10 -13 -10 -17 -1
-17 7 0 10 -8 7 -19 -3 -12 3 -27 14 -37 14 -12 16 -21 9 -35 -7 -12 -6 -20 2
-25 7 -5 8 -3 3 6 -6 9 -4 11 4 5 9 -5 9 -11 3 -17 -13 -13 -4 -38 13 -38 7 0
19 -8 26 -17 10 -11 10 -14 2 -9 -7 4 -13 2 -13 -3 0 -6 5 -11 11 -11 5 0 8
-4 5 -9 -3 -5 1 -11 9 -15 8 -3 15 -12 15 -21 0 -14 12 -20 34 -16 5 1 4 -4
-2 -12 -12 -14 -6 -27 12 -27 6 0 4 5 -4 10 -13 8 -12 10 3 10 10 0 17 -8 17
-20 0 -11 7 -20 16 -20 8 0 13 -4 9 -9 -3 -5 4 -12 15 -16 11 -3 20 -12 20
-20 0 -17 27 -27 34 -12 2 7 5 -1 6 -18 2 -18 4 -23 7 -12 2 9 9 17 14 17 6 0
8 -4 4 -9 -3 -5 -2 -12 3 -15 4 -2 8 6 8 19 0 13 -4 21 -10 18 -5 -4 -7 1 -3
10 3 9 1 19 -5 23 -7 5 -8 2 -3 -6 5 -9 4 -11 -4 -6 -9 6 -9 11 0 22 9 11 8
14 -2 14 -11 0 -11 2 1 10 13 8 13 10 -2 10 -9 0 -20 4 -23 10 -3 6 1 7 9 4
14 -5 14 -3 1 22 -9 18 -11 32 -5 39 6 7 6 16 2 20 -4 5 -1 5 6 1 7 -4 10 -13
6 -19 -3 -7 1 -4 9 6 11 14 16 15 20 5 3 -8 6 -5 6 7 1 15 4 16 13 7 15 -15
29 -16 25 -1 -1 6 4 14 12 17 8 3 11 0 7 -7 -10 -15 16 -14 34 1 8 7 7 4 -3
-8 -22 -26 -22 -35 1 -28 9 3 6 -1 -7 -9 -15 -9 -19 -16 -11 -19 9 -3 8 -8 -4
-21 -13 -12 -14 -17 -4 -17 8 0 5 -5 -6 -11 -15 -9 -16 -13 -5 -20 12 -7 11
-9 -1 -9 -13 0 -13 -1 0 -10 12 -8 12 -10 1 -10 -11 0 -11 -3 0 -17 10 -11 10
-14 2 -9 -13 7 -17 -4 -13 -33 2 -13 -1 -13 -17 0 -16 12 -17 12 -6 -2 7 -9 9
-20 5 -24 -4 -5 -1 -5 5 -1 9 5 11 2 7 -8 -3 -9 -10 -13 -15 -10 -5 3 -6 -2
-3 -10 3 -8 12 -17 21 -20 11 -4 13 -2 10 9 -4 8 -1 17 5 21 7 5 8 2 3 -7 -7
-11 -6 -12 7 -2 8 7 19 9 24 5 4 -4 2 2 -6 12 -8 11 -10 17 -3 13 6 -4 14 -1
16 5 4 10 6 10 6 0 1 -7 5 -11 11 -7 5 3 6 13 3 22 -4 11 -3 14 5 9 7 -4 12
-3 12 3 0 6 7 8 15 5 9 -4 15 0 15 10 0 9 16 22 35 30 19 8 35 18 35 21 0 3
-9 1 -21 -5 -11 -7 -23 -9 -26 -7 -2 3 5 8 16 12 12 3 21 11 21 17 0 7 5 6 15
-2 12 -10 14 -8 10 8 -3 16 1 19 18 15 16 -3 18 -2 9 5 -11 7 -9 11 8 15 16 4
21 11 16 22 -3 9 -2 13 4 10 6 -3 10 -1 10 6 0 6 8 9 20 6 10 -3 19 -2 18 2
-3 15 15 40 25 34 7 -4 8 0 3 13 -4 10 -4 15 0 11 4 -4 14 -1 23 5 9 7 12 8 8
3 -4 -5 3 -15 15 -22 13 -7 17 -12 10 -13 -10 0 -10 -4 2 -16 9 -8 21 -12 27
-8 8 4 9 3 5 -5 -9 -14 2 -51 16 -51 5 0 21 -9 35 -20 14 -11 22 -20 18 -20
-5 0 -16 7 -26 16 -13 12 -19 12 -25 3 -4 -7 -3 -10 3 -6 13 8 45 -27 36 -38
-5 -5 1 -3 11 5 13 10 17 10 12 3 -4 -8 -1 -13 9 -13 9 0 14 -4 11 -9 -3 -5 2
-15 11 -22 10 -8 14 -9 10 -2 -4 6 -3 15 3 18 6 4 10 3 9 -2 -4 -21 2 -34 13
-27 8 5 9 2 5 -10 -4 -9 -3 -15 2 -12 12 8 43 -29 34 -39 -5 -5 1 -3 11 5 13
10 17 10 12 3 -4 -7 -2 -13 4 -13 7 0 8 -6 1 -19 -6 -10 -7 -21 -4 -25 3 -3 1
-6 -7 -6 -10 0 -10 -3 0 -15 10 -12 9 -15 -6 -15 -14 0 -15 -3 -6 -12 18 -18
15 -31 -5 -24 -15 6 -16 5 -1 -11 8 -10 13 -24 11 -30 -3 -7 0 -13 7 -13 8 0
8 -6 -1 -21 -8 -15 -8 -19 0 -15 6 4 11 0 11 -8 0 -9 5 -16 11 -16 8 0 7 -6
-2 -17 -10 -11 -10 -14 -2 -9 7 4 13 2 13 -3 0 -6 3 -10 8 -10 4 1 14 1 22 0
13 -1 13 -2 0 -12 -11 -8 -12 -12 -2 -16 6 -2 10 -9 6 -14 -3 -5 2 -9 11 -9 9
0 13 -4 10 -10 -3 -5 -2 -10 3 -10 10 0 25 -38 23 -54 -1 -5 6 -3 15 5 16 13
16 12 4 -11 -13 -24 -12 -24 5 -10 10 8 16 10 12 3 -4 -6 -2 -15 4 -18 5 -4 8
-13 5 -20 -3 -8 3 -19 12 -27 15 -11 15 -11 5 3 -10 12 -10 16 0 16 7 0 14
-10 15 -21 0 -11 6 -22 12 -24 5 -2 8 -8 4 -13 -3 -5 2 -9 11 -9 10 0 13 -5 9
-12 -6 -9 -3 -9 9 0 9 8 22 10 28 6 8 -5 10 -2 5 7 -4 8 2 2 14 -13 12 -16 27
-28 33 -28 6 0 2 7 -9 15 -18 15 -18 15 0 8 14 -5 17 -3 11 7 -6 10 -4 11 6 4
21 -13 38 -14 46 -2 3 7 1 8 -5 4 -7 -4 -12 -3 -12 3 0 15 18 23 25 11 3 -5
15 -8 25 -7 22 4 39 17 22 17 -7 0 -12 4 -12 9 0 5 10 7 23 5 12 -2 17 -2 10
2 -10 4 -10 8 0 19 7 7 17 10 22 7 6 -3 3 3 -5 13 -9 11 -10 16 -2 11 7 -4 12
-2 12 4 0 6 4 8 10 5 6 -3 7 1 4 9 -4 11 0 16 12 16 18 1 18 2 -1 16 -20 16
-19 16 4 9 14 -4 21 -3 18 2 -4 6 1 19 9 29 9 10 12 13 8 5 -5 -9 -3 -12 5 -7
7 5 9 16 5 28 -4 14 -3 18 6 13 7 -4 13 1 17 14 3 11 9 19 13 16 5 -3 7 6 5
20 -2 22 0 23 13 13 13 -11 14 -10 4 9 -10 19 -9 23 9 28 12 4 18 10 13 14 -5
3 -10 14 -10 24 -1 12 2 15 10 8 8 -6 11 -2 11 14 0 13 -3 21 -6 19 -4 -2 -10
3 -13 12 -5 12 -2 15 11 10 14 -6 15 -4 6 5 -6 6 -9 18 -6 25 3 8 0 14 -5 14
-6 0 -10 17 -9 39 1 27 5 37 15 34 7 -3 12 0 10 8 -2 8 3 13 10 12 11 -3 16
10 13 30 -1 5 3 6 9 2 5 -3 10 -1 10 6 0 8 4 8 16 -1 8 -8 14 -9 13 -4 -4 23
2 36 15 31 11 -4 13 -1 9 11 -3 9 -3 14 1 10 10 -9 68 50 61 62 -3 5 0 12 6
16 8 5 10 2 5 -7 -4 -8 -1 -6 7 3 8 10 18 14 23 10 4 -4 2 1 -6 11 -7 10 -9
17 -4 16 21 -4 35 2 29 11 -4 6 -11 7 -17 4 -7 -5 -8 -2 -4 5 5 7 10 10 13 7
6 -6 32 17 28 24 -2 3 7 5 20 5 14 0 21 -5 18 -12 -3 -7 2 -13 11 -13 9 0 16
-5 16 -11 0 -6 7 -8 16 -5 14 6 15 4 4 -9 -7 -9 -9 -15 -4 -14 21 4 34 -2 34
-16 0 -9 6 -12 17 -8 9 4 14 2 10 -3 -3 -6 3 -16 13 -24 10 -8 17 -17 14 -22
-3 -5 -2 -8 3 -7 22 4 43 -2 38 -11 -3 -5 1 -10 10 -10 10 0 13 -5 9 -12 -5
-7 -2 -9 9 -5 11 4 14 2 10 -9 -3 -9 1 -14 12 -14 9 0 13 -4 10 -10 -3 -5 -1
-10 5 -10 6 0 18 -7 27 -15 8 -8 19 -13 24 -10 8 6 13 -9 10 -28 -1 -5 3 -6 8
-3 5 3 11 -1 15 -9 6 -17 36 -21 36 -4 0 5 -4 7 -10 4 -14 -9 -12 8 3 24 10
11 7 12 -13 7 -14 -3 -19 -3 -12 0 6 3 12 21 12 40 0 26 -3 33 -12 28 -9 -5
-9 -2 1 9 9 11 10 17 2 17 -6 0 -11 7 -11 15 0 8 6 15 13 15 7 0 8 3 2 8 -15
11 -42 47 -29 39 6 -4 10 2 8 16 -1 12 -3 26 -3 30 -1 5 -5 6 -9 3 -5 -3 -9 1
-9 9 0 8 4 12 9 9 4 -3 8 1 9 8 0 7 4 4 9 -7 5 -11 9 -14 9 -6 1 11 4 11 16 1
12 -10 15 -10 15 4 0 9 4 16 10 16 5 0 7 -6 4 -14 -3 -8 0 -17 7 -22 7 -4 10
-3 5 4 -3 6 -2 14 4 17 6 4 10 3 9 -2 -1 -4 -1 -15 0 -23 1 -13 2 -13 11 0 8
13 10 12 10 -2 0 -10 5 -18 11 -18 5 0 8 -4 4 -10 -3 -5 -13 -7 -23 -4 -14 5
-14 4 -3 -4 18 -13 23 -40 9 -49 -7 -4 -8 -1 -3 8 7 12 5 12 -6 1 -12 -11 -12
-14 1 -22 12 -8 12 -10 1 -10 -11 0 -11 -3 0 -17 13 -15 12 -15 -11 -3 -21 10
-23 10 -12 -1 6 -7 12 -24 13 -39 0 -14 3 -19 6 -12 2 6 10 9 16 5 7 -4 8 0 4
11 -4 10 -3 15 3 11 6 -3 10 -1 10 5 0 7 7 9 16 6 8 -3 13 -2 10 3 -3 4 6 14
19 21 14 7 25 17 25 22 0 5 -5 6 -12 2 -7 -4 -8 -3 -4 4 4 7 16 12 27 12 11 0
17 5 14 10 -3 6 -1 10 5 10 6 0 8 5 4 13 -6 9 -4 9 8 -1 13 -10 18 -10 24 -1
4 7 3 9 -4 5 -7 -4 -10 2 -9 14 1 12 7 18 14 16 7 -3 15 -1 18 4 4 6 1 10 -5
10 -6 0 -8 5 -5 10 4 6 11 8 16 5 5 -3 6 1 3 9 -3 9 -2 16 4 16 5 0 12 9 15
20 4 14 11 18 24 14 17 -5 17 -5 1 6 -15 9 -16 14 -6 30 7 10 15 17 20 14 11
-7 21 42 12 57 -5 9 -2 10 10 6 11 -4 15 -3 10 4 -4 6 0 15 7 20 11 7 11 9 -3
9 -9 0 -20 5 -23 10 -4 6 -3 10 2 9 4 -1 15 -1 23 0 13 1 13 2 0 11 -12 8 -12
10 -1 10 11 0 11 3 0 18 -12 15 -12 16 2 5 12 -10 18 -10 29 0 12 10 12 9 1
-5 -13 -18 -6 -24 22 -19 4 1 3 -8 -4 -20 -8 -15 -8 -19 0 -15 6 4 11 0 11 -8
0 -9 8 -16 18 -16 14 0 15 -2 2 -10 -13 -8 -12 -10 3 -10 9 0 17 -7 17 -16 0
-9 5 -12 12 -8 6 4 8 3 4 -4 -3 -6 4 -18 16 -27 l23 -17 -25 7 c-24 7 -24 7
-5 -9 11 -8 16 -16 11 -16 -5 0 -3 -7 4 -15 7 -8 18 -15 24 -15 6 0 3 7 -6 14
-10 7 -15 16 -11 19 10 11 32 -27 23 -38 -5 -6 -4 -17 2 -25 8 -12 9 -11 4 4
-6 16 -4 17 9 6 10 -9 12 -16 5 -25 -7 -8 -5 -12 5 -12 8 0 15 5 15 10 0 6 3
7 6 4 4 -4 1 -13 -6 -22 -10 -12 -10 -15 3 -15 11 0 14 -5 10 -17 -4 -11 -3
-14 5 -9 7 4 12 2 12 -4 0 -6 5 -8 10 -5 13 8 13 -8 0 -21 -6 -6 -2 -10 12
-11 18 -2 20 0 8 7 -8 5 -10 10 -5 10 15 0 16 41 2 58 -13 16 -18 42 -9 41 19
-3 26 2 14 9 -7 5 -13 29 -14 55 0 28 -5 47 -12 47 -6 0 -4 5 4 10 13 8 12 10
-3 10 -10 0 -15 5 -12 10 4 6 12 7 18 3 7 -3 3 3 -7 15 -11 12 -16 25 -13 29
4 3 7 0 7 -7 0 -7 3 -10 6 -7 4 4 1 13 -6 22 -10 12 -10 15 1 15 8 0 6 6 -7
16 -10 8 -12 12 -4 8 12 -6 13 -5 3 7 -12 15 -13 18 -13 50 0 13 -4 18 -12 13
-9 -5 -9 -2 1 9 11 13 11 17 1 17 -8 0 -10 3 -7 6 3 4 2 15 -4 25 -8 15 -6 18
8 13 17 -5 17 -5 1 5 -9 6 -15 19 -13 29 2 11 -3 19 -11 19 -10 0 -11 -4 -3
-13 7 -8 6 -14 -2 -20 -7 -4 -9 -3 -5 4 3 6 2 14 -4 17 -8 5 -7 11 1 21 9 11
9 14 -1 14 -10 0 -10 3 -1 14 10 12 8 17 -8 25 -12 7 -18 17 -15 26 5 12 9 11
23 -7 14 -17 18 -18 18 -5 0 9 -5 13 -11 10 -6 -3 -5 0 2 8 9 10 15 11 20 3 7
-12 47 -12 58 -1 4 4 13 2 21 -4 9 -8 17 -8 26 0 8 6 18 7 22 3 5 -4 5 -2 1 5
-3 6 -2 14 4 18 5 3 10 2 10 -4 0 -12 27 -8 42 7 9 9 16 8 32 -6 11 -9 16 -11
11 -3 -4 8 -2 17 6 22 21 13 35 11 21 -3 -7 -7 -12 -17 -12 -22 0 -7 3 -8 8
-1 4 6 16 17 26 25 18 13 19 13 11 0 -6 -12 -5 -12 5 -3 7 6 19 9 28 6 11 -5
13 -3 7 8 -7 12 -6 12 7 1 13 -10 18 -10 24 -1 4 7 2 15 -4 17 -7 2 -9 9 -5
15 4 8 1 7 -9 -1 -13 -10 -17 -10 -21 0 -4 9 -6 9 -6 -2 -1 -9 -9 -3 -22 15
-12 17 -19 23 -16 14 3 -9 -1 -16 -9 -16 -7 0 -12 3 -10 6 2 3 -2 11 -9 18
-11 10 -15 10 -18 0 -4 -9 -6 -9 -6 1 -1 6 -10 12 -22 12 -13 0 -18 4 -13 13
5 7 0 6 -11 -3 -15 -12 -17 -12 -10 -1 6 11 4 13 -8 8 -9 -3 -18 1 -21 10 -4
8 -13 13 -21 9 -8 -3 -19 3 -24 12 -8 14 -11 14 -11 2 -1 -13 -2 -13 -13 1 -7
9 -20 15 -29 13 -10 -1 -20 6 -23 17 -4 11 -11 17 -16 13 -5 -3 -6 -10 -3 -16
4 -7 2 -8 -4 -4 -7 4 -12 16 -12 28 0 16 -5 19 -21 15 -12 -3 -18 -3 -15 0 3
4 -4 18 -16 32 l-23 26 30 -25 30 -25 -20 25 c-25 32 -37 40 -47 34 -4 -3 -8
0 -8 5 0 6 7 11 15 11 9 0 12 6 8 18 -5 14 -3 13 10 -3 14 -18 16 -19 22 -3 6
15 11 16 28 6 21 -11 21 -10 7 7 -8 10 -10 16 -3 12 6 -4 14 -3 18 3 3 5 12
10 18 10 8 0 8 -3 -1 -9 -10 -6 -7 -10 12 -13 14 -3 23 -2 21 2 -3 4 2 13 9
19 10 9 16 9 21 1 5 -8 11 -8 19 -1 7 6 17 7 21 3 5 -4 5 -1 1 6 -7 12 4 16
32 13 6 -1 12 3 12 10 0 9 3 9 14 0 10 -9 16 -8 25 3 7 8 20 12 28 9 11 -5 14
-3 8 6 -6 10 -3 11 15 1 12 -7 20 -8 16 -2 -3 5 1 12 9 16 8 3 15 1 15 -5 0
-6 5 -7 10 -4 6 4 8 10 5 15 -3 4 4 6 16 3 12 -4 25 0 30 8 7 11 9 11 9 1 0
-7 5 -10 10 -7 6 4 7 11 4 17 -4 6 2 6 15 -1 16 -9 20 -9 15 2 -4 10 2 14 20
12 19 -2 23 1 18 13 -3 10 -7 12 -10 4 -3 -9 -7 -8 -17 1 -7 7 -11 15 -8 20 2
4 0 7 -6 7 -5 0 -12 -6 -14 -12 -3 -7 -6 -2 -6 12 -1 20 -3 22 -11 10 -8 -13
-10 -12 -10 3 0 10 -4 15 -10 12 -6 -3 -10 -1 -10 4 0 6 -3 10 -7 10 -21 -3
-33 2 -33 16 0 8 -3 14 -7 13 -18 -5 -53 14 -47 24 5 7 1 9 -9 5 -11 -4 -14
-2 -10 9 4 10 0 12 -11 8 -11 -4 -16 -1 -16 12 0 16 -2 17 -10 4 -7 -11 -10
-11 -10 -2 0 7 -4 10 -10 7 -6 -3 -7 1 -4 9 6 15 -11 22 -38 17 -5 0 -7 2 -6
7 5 14 -51 64 -63 56 -8 -4 -9 -3 -5 4 7 11 -6 17 -28 13 -5 -1 -3 5 4 14 11
13 10 15 -4 9 -12 -5 -19 0 -23 15 -4 17 -8 19 -19 10 -12 -10 -13 -8 -7 6 5
15 3 17 -12 11 -11 -4 -16 -4 -13 0 4 3 2 12 -5 20 -30 34 -35 42 -29 50 4 4
1 4 -6 -1 -10 -5 -11 -10 -3 -18 19 -19 12 -28 -7 -9 -11 9 -17 20 -15 25 2 4
-3 10 -11 13 -9 3 -13 10 -10 15 3 5 -3 6 -12 2 -14 -5 -16 -2 -12 15 5 19 3
20 -12 12 -16 -9 -18 -7 -15 11 4 17 2 19 -11 8 -12 -10 -13 -9 -7 6 5 14 3
17 -8 13 -8 -3 -23 0 -34 8 -10 8 -14 14 -9 14 6 0 16 -6 24 -12 12 -11 12
-10 1 5 -7 9 -19 17 -26 17 -7 0 -19 8 -26 18 -13 16 -13 16 6 2 19 -14 19
-14 6 3 -7 9 -21 17 -31 17 -10 0 -21 7 -24 16 -3 8 -11 12 -17 8 -7 -4 -6 2
2 17 11 22 11 23 -4 11 -14 -12 -21 -8 -51 23 -20 20 -36 39 -36 43 0 3 3 2 7
-1 3 -4 11 -3 17 2 6 4 19 11 30 15 14 5 17 3 12 -10 -5 -13 -4 -14 7 -6 8 7
18 8 22 4 5 -4 5 -1 1 6 -6 9 1 12 28 9 22 -3 44 2 58 11 20 15 21 14 15 -4
-6 -16 -5 -16 10 3 13 17 22 20 33 13 20 -13 33 -13 25 0 -6 10 3 13 37 13 9
0 17 2 16 6 -2 19 4 24 12 11 9 -13 12 -13 23 1 6 9 19 15 28 14 20 -3 81 49
71 61 -4 4 1 2 11 -5 16 -13 19 -12 24 8 4 15 11 20 21 16 13 -5 13 -3 1 12
-8 9 -9 14 -2 10 6 -4 14 -3 18 3 4 6 12 7 18 3 7 -4 5 2 -3 12 -14 17 -13 18
7 13 17 -5 21 -2 18 13 -3 12 2 19 12 19 10 0 13 6 9 16 -3 8 -2 13 3 10 5 -3
15 2 22 11 10 12 10 14 2 9 -7 -4 -13 -3 -13 2 0 6 7 13 16 16 13 5 14 9 5 20
-10 12 -8 14 11 9 18 -4 20 -3 8 6 -13 9 -8 15 11 13 4 -1 5 8 2 18 -3 13 0
20 8 20 11 0 11 2 -1 10 -10 6 -11 10 -2 10 6 0 12 7 12 16 0 9 5 12 13 8 7
-5 6 0 -3 11 -8 10 -10 16 -4 12 7 -4 14 0 18 8 3 8 1 17 -5 20 -5 4 -6 12 -2
18 8 12 9 17 12 38 0 5 6 7 13 3 7 -4 8 -3 4 4 -4 7 -1 12 6 12 10 0 10 2 0 9
-17 11 -17 21 0 33 8 6 5 7 -12 2 -22 -6 -23 -5 -11 10 7 9 9 16 3 16 -5 0
-12 14 -14 30 -3 17 0 30 6 30 6 0 4 4 -4 10 -17 11 -21 57 -7 85 10 19 9 19
-10 2 -16 -14 -20 -15 -20 -2 0 8 4 15 9 15 5 0 3 6 -4 14 -7 8 -15 13 -18 11
-3 -2 -6 8 -6 21 -1 15 2 22 10 18 6 -3 -3 8 -21 25 -20 18 -27 32 -20 35 9 3
8 5 -1 5 -7 1 -10 5 -7 11 3 6 -1 7 -10 4 -9 -4 -15 -3 -14 2 4 17 -13 44 -28
44 -8 0 -11 5 -8 10 3 6 -1 10 -11 10 -12 0 -15 6 -11 21 5 17 3 18 -11 7 -14
-11 -15 -10 -9 6 6 16 5 17 -8 6 -13 -10 -15 -9 -15 8 0 16 -4 20 -17 15 -16
-6 -16 -5 -4 10 12 15 12 17 -2 12 -8 -4 -18 -1 -23 6 -5 8 -3 10 6 4 9 -6 11
-4 6 4 -5 7 -14 10 -21 7 -7 -2 -12 3 -11 12 1 11 -6 16 -17 16 -14 -2 -15 1
-6 12 8 10 7 12 -9 9 -13 -2 -19 2 -18 13 0 10 -5 16 -13 14 -12 -3 -12 -1 0
14 9 12 9 15 2 10 -7 -4 -13 -3 -13 2 0 5 -9 19 -20 32 -11 12 -17 27 -14 32
3 4 0 7 -8 6 -8 -2 -13 6 -12 19 1 13 -3 20 -7 17 -5 -3 -7 -9 -4 -14 3 -5 1
-11 -4 -14 -5 -3 -7 7 -6 23 2 23 -1 28 -14 23 -14 -5 -14 -4 -2 11 12 15 11
17 -3 17 -10 0 -14 5 -11 10 3 6 1 10 -5 10 -6 0 -8 5 -5 10 3 6 -1 10 -11 10
-11 0 -15 6 -11 20 3 13 0 20 -9 20 -8 0 -15 10 -16 23 -2 42 -3 46 -12 54 -5
4 -6 3 -2 -4 5 -9 2 -11 -9 -6 -9 3 -13 9 -8 12 14 9 24 41 13 41 -5 0 -7 9
-5 20 2 12 0 18 -6 14 -6 -3 -10 8 -9 28 1 55 -2 73 -14 81 -8 5 -7 9 2 15 10
7 11 14 1 35 -7 15 -16 24 -21 21 -5 -4 -4 4 4 16 10 18 10 24 1 27 -7 3 -13
9 -13 14 0 6 6 7 13 3 9 -6 9 -5 0 8 -7 8 -9 18 -5 23 4 4 -3 2 -15 -4 -13 -6
-23 -14 -23 -17 0 -3 5 -2 10 1 17 11 11 -7 -7 -21 -16 -12 -16 -15 -3 -24 13
-8 13 -10 -2 -10 -12 0 -15 -5 -11 -17 4 -11 3 -14 -5 -9 -8 5 -10 2 -6 -8 3
-9 1 -16 -6 -16 -6 0 -9 -4 -5 -9 3 -5 1 -12 -5 -16 -5 -3 -10 -18 -10 -32 0
-19 -4 -24 -16 -19 -14 5 -15 4 -4 -9 10 -12 10 -15 -4 -15 -10 0 -14 -5 -11
-10 4 -6 12 -8 18 -4 7 3 4 -1 -5 -9 -10 -8 -15 -17 -11 -20 3 -4 0 -7 -8 -7
-11 0 -11 -2 1 -10 12 -8 12 -10 -5 -10 -16 0 -17 -2 -5 -10 12 -8 12 -10 -3
-16 -15 -5 -15 -9 -5 -22 11 -13 10 -15 -6 -9 -15 6 -17 5 -8 -6 7 -8 8 -17 3
-23 -14 -14 -25 -58 -13 -50 6 4 8 -2 5 -14 -3 -11 -9 -18 -12 -15 -4 2 -8 -2
-8 -10 0 -8 5 -11 11 -8 6 4 5 -1 -3 -10 -11 -14 -11 -17 0 -17 10 -1 9 -5 -4
-14 -11 -9 -14 -17 -8 -20 6 -4 8 -12 6 -19 -7 -18 -11 -116 -5 -115 17 1 20
-4 10 -22 -6 -11 -7 -20 -2 -20 5 0 8 -11 7 -25 -2 -14 2 -28 7 -32 7 -4 8 -1
3 7 -6 9 -4 11 4 5 9 -5 9 -11 3 -17 -7 -7 -5 -16 6 -29 9 -10 17 -31 18 -46
0 -15 6 -29 13 -31 6 -2 11 -10 11 -18 0 -10 5 -12 13 -8 8 5 7 2 -2 -10 -13
-15 -12 -18 7 -23 12 -3 19 -9 16 -14 -3 -5 0 -9 6 -9 6 0 9 -4 6 -9 -3 -5 3
-11 13 -14 11 -2 21 -15 23 -28 2 -13 9 -23 15 -22 7 2 10 -3 7 -11 -3 -8 5
-21 18 -30 12 -9 18 -16 13 -16 -6 0 -1 -7 9 -15 19 -15 19 -15 -2 -15 -12 0
-22 -5 -22 -11 0 -5 4 -8 9 -4 5 3 12 1 16 -5 3 -5 -2 -10 -12 -10 -15 0 -15
-2 -3 -9 8 -6 19 -7 25 -3 5 3 4 -1 -2 -10 -7 -8 -10 -18 -7 -21 4 -4 -3 -4
-16 -2 -16 3 -19 1 -11 -8 7 -10 4 -13 -12 -13 -12 0 -26 5 -30 10 -6 8 -10 7
-14 -1 -2 -7 -9 -13 -14 -13 -6 0 -7 5 -4 10 7 11 -18 14 -29 3 -3 -4 -13 -8
-22 -9 -12 -2 -13 1 -3 12 6 7 15 11 20 8 5 -3 9 0 9 6 0 7 -6 9 -12 6 -7 -3
-21 -9 -30 -12 -10 -4 -18 -11 -18 -16 0 -5 -5 -6 -10 -3 -6 4 -7 12 -3 19 4
7 0 3 -9 -7 -18 -19 -18 -19 -19 4 0 13 -3 18 -6 12 -2 -7 -11 -13 -19 -13
-10 0 -12 5 -8 13 5 8 2 8 -9 -2 -14 -11 -17 -11 -17 0 0 11 -2 11 -9 -1 -6
-8 -7 -18 -5 -22 9 -15 -3 -8 -17 9 -12 14 -12 16 0 8 10 -5 12 -4 7 4 -6 9
-11 9 -22 0 -8 -6 -14 -7 -14 -2 0 14 -40 9 -50 -6 -6 -11 -9 -11 -13 0 -5 12
-7 12 -15 0 -8 -11 -11 -10 -15 5 -4 17 -5 17 -6 1 0 -10 -6 -15 -11 -12 -6 4
-17 2 -25 -5 -9 -8 -15 -8 -20 0 -5 8 -11 7 -23 -2 -12 -11 -16 -11 -20 0 -3
10 -8 8 -19 -5 -8 -10 -12 -13 -9 -6 4 6 2 14 -4 18 -5 3 -10 -1 -10 -9 0 -9
-5 -16 -11 -16 -5 0 -7 4 -4 10 3 6 -1 7 -9 4 -9 -4 -16 -1 -16 6 0 10 -3 10
-14 1 -12 -10 -13 -8 -8 11 5 21 4 22 -11 9 -14 -11 -17 -11 -18 0 -1 8 -1 18
0 23 1 5 -6 3 -15 -5 -12 -9 -15 -9 -10 -1 6 11 0 14 -21 11 -3 0 -10 6 -15
15 -5 9 -27 19 -49 22 -28 5 -36 10 -27 15 9 6 4 9 -15 9 -17 0 -30 7 -34 17
-6 15 -7 15 -14 -3 -7 -17 -8 -17 -8 -1 -1 9 -4 17 -7 17 -4 0 -13 -8 -20 -17
-12 -16 -13 -16 -9 5 4 20 2 22 -10 12 -12 -10 -15 -10 -15 1 0 11 -2 11 -10
-1 -8 -12 -10 -12 -10 5 0 17 -2 17 -10 5 -5 -8 -10 -10 -10 -3 0 6 -9 9 -22
5 -12 -3 -19 -1 -15 5 3 5 0 10 -8 10 -8 0 -12 -3 -10 -7 2 -4 -2 -7 -10 -7
-8 0 -12 4 -9 9 3 4 -2 8 -11 8 -10 0 -13 -5 -9 -12 5 -7 3 -8 -5 -4 -7 5 -10
15 -7 25 6 14 5 15 -6 0 -13 -16 -43 -15 -33 2 4 5 -1 6 -9 3 -9 -3 -13 -10
-10 -15 3 -5 0 -9 -5 -9 -6 0 -11 7 -11 15 0 11 -5 12 -25 5 -17 -6 -25 -6
-25 1 0 6 -5 7 -10 4 -6 -4 -7 -12 -4 -18 5 -8 3 -8 -7 1 -19 18 -34 15 -18
-5 12 -14 10 -14 -13 1 -16 10 -28 14 -28 7 0 -5 -7 -8 -16 -4 -9 3 -20 0 -25
-8 -7 -12 -9 -12 -9 1 0 13 -1 13 -10 0 -7 -11 -10 -11 -10 -2 0 7 -5 10 -10
7 -6 -4 -7 -11 -4 -17 4 -6 -1 -6 -14 1 -16 8 -21 7 -26 -6 -5 -11 -10 -13
-17 -6 -12 12 -68 -4 -81 -22 -5 -6 -8 -5 -8 3 0 6 -5 12 -11 12 -5 0 -7 -5
-3 -12 5 -7 3 -8 -5 -4 -7 5 -18 0 -26 -10 -8 -11 -15 -15 -15 -10 0 5 -8 2
-17 -5 -11 -10 -14 -10 -9 -1 4 6 2 12 -3 12 -6 0 -11 -7 -11 -15 0 -11 -7
-14 -26 -11 -23 4 -24 3 -13 -12 8 -9 9 -14 5 -10 -5 4 -15 3 -23 -4 -11 -9
-12 -7 -8 8 4 10 -1 7 -10 -8 -8 -16 -18 -28 -21 -28 -3 0 -3 4 1 9 3 5 1 12
-5 16 -5 3 -10 -1 -10 -10 0 -12 -5 -15 -16 -11 -14 5 -15 4 -4 -9 11 -13 10
-14 -5 -9 -11 5 -16 4 -12 -3 4 -6 -11 -10 -38 -11 -24 -1 -47 2 -50 8 -3 5
-12 10 -18 10 -7 0 -6 -4 3 -10 8 -5 10 -10 4 -10 -6 0 -14 3 -18 7 -15 16
-127 24 -120 9 3 -6 0 -4 -8 4 -14 16 -36 19 -55 7 -6 -4 -14 -1 -16 5 -3 7
-6 4 -6 -6 -1 -19 -1 -19 -14 -1 -10 13 -16 15 -21 6 -5 -8 -14 -5 -27 11 -12
13 -18 17 -14 11 3 -7 1 -13 -5 -13 -6 0 -8 -5 -4 -12 4 -7 3 -8 -4 -4 -7 4
-21 9 -31 11 -15 3 -18 -1 -14 -13 3 -9 3 -14 -2 -10 -4 4 -14 3 -22 -4 -8 -6
-13 -7 -12 -2 4 23 -3 31 -28 29 -16 -1 -34 3 -42 9 -12 9 -13 8 -6 -3 6 -11
4 -13 -11 -7 -10 4 -23 9 -29 10 -26 4 -33 17 -26 44 4 15 6 33 3 41 -3 9 0
11 8 6 10 -6 12 -3 6 10 -6 16 -4 16 10 4 16 -13 16 -12 5 9 -10 18 -9 22 4
22 8 0 14 4 12 10 -1 5 9 20 23 32 14 13 21 20 16 16 -20 -15 -26 -8 -8 10 9
11 20 17 23 16 4 -2 12 3 19 11 11 13 10 15 -6 10 -10 -4 -7 1 9 10 15 8 27
18 27 21 0 3 -4 2 -10 -1 -19 -12 -10 7 13 27 12 11 16 17 10 13 -7 -3 -13 -1
-13 4 0 6 5 11 11 11 6 0 8 7 5 16 -4 10 -2 13 6 8 8 -5 9 -2 5 9 -4 10 0 20
11 26 11 7 12 11 4 11 -7 0 -10 5 -7 10 4 6 12 7 18 3 7 -4 6 0 -2 10 -9 12
-10 17 -2 17 7 0 9 5 6 10 -3 6 -1 10 6 10 8 0 8 4 -1 15 -10 12 -10 15 1 15
12 0 12 2 0 9 -11 7 -11 9 0 13 12 4 12 7 0 22 -12 14 -12 16 1 11 11 -4 14 0
12 17 -1 13 -3 25 -4 28 -1 3 -1 17 0 32 1 14 -4 29 -10 33 -5 3 -7 12 -3 18
12 20 11 56 -2 61 -7 2 -11 17 -9 35 2 17 0 31 -4 31 -4 0 -8 9 -9 20 -1 13 2
18 10 14 7 -4 8 -3 4 2 -5 5 -13 10 -18 10 -5 1 -12 2 -16 3 -4 0 2 8 13 16
18 14 18 14 -6 10 -22 -4 -23 -3 -9 8 14 10 14 14 3 25 -11 10 -14 10 -14 1 0
-7 -3 -9 -6 -6 -4 4 -1 13 6 22 8 10 9 15 1 15 -6 0 -10 3 -10 8 4 21 -2 32
-13 26 -9 -5 -9 -2 1 9 12 15 11 17 -5 17 -14 0 -16 2 -6 9 11 7 10 9 -3 14
-9 4 -15 15 -13 24 2 12 -3 17 -12 15 -10 -1 -9 2 4 13 18 14 13 19 -14 17 -3
0 -6 11 -5 26 0 15 -5 26 -11 25 -7 -1 -10 6 -7 17 3 13 0 20 -8 20 -11 0 -11
2 1 10 10 7 11 10 2 10 -7 0 -15 -8 -19 -17z m2862 -993 c3 -6 -1 -7 -9 -4
-18 7 -21 14 -7 14 6 0 13 -4 16 -10z m-2872 -204 c-4 -5 1 -7 10 -3 9 3 18 3
21 -1 3 -4 -4 -8 -14 -9 -11 -1 -22 3 -25 8 -4 5 -11 7 -16 4 -5 -4 -9 -2 -9
4 0 5 9 9 19 8 11 0 17 -5 14 -11z m91 -8 c-3 -5 -9 -6 -14 -3 -4 3 -10 0 -12
-7 -3 -8 -6 -7 -10 3 -4 11 1 15 17 15 13 0 21 -4 19 -8z m2558 -580 c-7 -7
-12 -8 -12 -2 0 6 3 14 7 17 3 4 9 5 12 2 2 -3 -1 -11 -7 -17z m128 -892 c0
-3 -4 -8 -10 -11 -5 -3 -10 -1 -10 4 0 6 5 11 10 11 6 0 10 -2 10 -4z m0 -381
c0 -8 -4 -15 -10 -15 -5 0 -7 7 -4 15 4 8 8 15 10 15 2 0 4 -7 4 -15z m-133
-61 c-3 -3 -12 -4 -19 -1 -8 3 -5 6 6 6 11 1 17 -2 13 -5z m-2687 -420 c0 -8
-19 -13 -24 -6 -3 5 1 9 9 9 8 0 15 -2 15 -3z m-335 -164 c-3 -5 -12 -10 -18
-10 -7 0 -6 4 3 10 19 12 23 12 15 0z m1489 -670 c-6 -6 -10 -3 -10 10 0 13 4
16 10 10 7 -7 7 -13 0 -20z"/>
<path d="M3809 3903 c-13 -16 -12 -17 4 -4 16 13 21 21 13 21 -2 0 -10 -8 -17
-17z"/>
<path d="M837 3849 c7 -7 15 -10 18 -7 3 3 -2 9 -12 12 -14 6 -15 5 -6 -5z"/>
<path d="M777 3733 c3 -7 6 -13 8 -13 1 0 7 6 13 13 8 10 6 13 -7 13 -11 0
-17 -6 -14 -13z"/>
<path d="M4029 3348 c-6 -21 -5 -37 2 -32 5 3 7 9 4 14 -3 4 1 11 7 13 10 4
10 6 1 6 -7 1 -13 0 -14 -1z"/>
<path d="M986 1002 c-3 -5 1 -9 9 -9 8 0 12 4 9 9 -3 4 -7 8 -9 8 -2 0 -6 -4
-9 -8z"/>
<path d="M1246 827 c3 -10 9 -15 12 -12 3 3 0 11 -7 18 -10 9 -11 8 -5 -6z"/>
<path d="M3830 746 c0 -2 7 -7 16 -10 8 -3 12 -2 9 4 -6 10 -25 14 -25 6z"/>
<path d="M2355 80 c-3 -5 -1 -10 4 -10 6 0 11 5 11 10 0 6 -2 10 -4 10 -3 0
-8 -4 -11 -10z"/>
</g>
</svg>
